<svg id="SvgjsSvg1145" width="326" height="228" xmlns="http://www.w3.org/2000/svg" version="1.1" xmlns:xlink="http://www.w3.org/1999/xlink" xmlns:svgjs="http://svgjs.dev" class="apexcharts-svg apexcharts-zoomable" xmlns:data="ApexChartsNS" transform="translate(0, 0)" style="background: transparent;"><g id="SvgjsG1147" class="apexcharts-inner apexcharts-graphical" transform="translate(17.12190476190476, -10)"><defs id="SvgjsDefs1146"><linearGradient id="SvgjsLinearGradient1150" x1="0" y1="0" x2="0" y2="1"><stop id="SvgjsStop1151" stop-opacity="0.4" stop-color="rgba(216,227,240,0.4)" offset="0"/><stop id="SvgjsStop1152" stop-opacity="0.5" stop-color="rgba(190,209,230,0.5)" offset="1"/><stop id="SvgjsStop1153" stop-opacity="0.5" stop-color="rgba(190,209,230,0.5)" offset="1"/></linearGradient><clipPath id="gridRectMask0j1g2db5"><rect id="SvgjsRect1155" width="332" height="243" x="-15.12190476190476" y="0" rx="0" ry="0" opacity="1" stroke-width="0" stroke="none" stroke-dasharray="0" fill="#fff"/></clipPath><clipPath id="forecastMask0j1g2db5"/><clipPath id="nonForecastMask0j1g2db5"/><clipPath id="gridRectMarkerMask0j1g2db5"><rect id="SvgjsRect1156" width="305.75619047619045" height="247" x="-2" y="-2" rx="0" ry="0" opacity="1" stroke-width="0" stroke="none" stroke-dasharray="0" fill="#fff"/></clipPath></defs><rect id="SvgjsRect1154" width="0" height="243" x="0" y="0" rx="0" ry="0" opacity="1" stroke-width="0" stroke-dasharray="3" fill="url(#SvgjsLinearGradient1150)" class="apexcharts-xcrosshairs" y2="243" filter="none" fill-opacity="0.9"/><g id="SvgjsG1178" class="apexcharts-xaxis" transform="translate(0, 0)"><g id="SvgjsG1179" class="apexcharts-xaxis-texts-g" transform="translate(0, -4)"/></g><g id="SvgjsG1188" class="apexcharts-grid"><g id="SvgjsG1189" class="apexcharts-gridlines-horizontal" style="display: none;"><line id="SvgjsLine1191" x1="-13.12190476190476" y1="0" x2="314.8780952380952" y2="0" stroke="#e0e0e0" stroke-dasharray="0" stroke-linecap="butt" class="apexcharts-gridline"/><line id="SvgjsLine1192" x1="-13.12190476190476" y1="48.6" x2="314.8780952380952" y2="48.6" stroke="#e0e0e0" stroke-dasharray="0" stroke-linecap="butt" class="apexcharts-gridline"/><line id="SvgjsLine1193" x1="-13.12190476190476" y1="97.2" x2="314.8780952380952" y2="97.2" stroke="#e0e0e0" stroke-dasharray="0" stroke-linecap="butt" class="apexcharts-gridline"/><line id="SvgjsLine1194" x1="-13.12190476190476" y1="145.8" x2="314.8780952380952" y2="145.8" stroke="#e0e0e0" stroke-dasharray="0" stroke-linecap="butt" class="apexcharts-gridline"/><line id="SvgjsLine1195" x1="-13.12190476190476" y1="194.4" x2="314.8780952380952" y2="194.4" stroke="#e0e0e0" stroke-dasharray="0" stroke-linecap="butt" class="apexcharts-gridline"/><line id="SvgjsLine1196" x1="-13.12190476190476" y1="243" x2="314.8780952380952" y2="243" stroke="#e0e0e0" stroke-dasharray="0" stroke-linecap="butt" class="apexcharts-gridline"/></g><g id="SvgjsG1190" class="apexcharts-gridlines-vertical" style="display: none;"/><line id="SvgjsLine1198" x1="0" y1="243" x2="301.75619047619045" y2="243" stroke="transparent" stroke-dasharray="0" stroke-linecap="butt"/><line id="SvgjsLine1197" x1="0" y1="1" x2="0" y2="243" stroke="transparent" stroke-dasharray="0" stroke-linecap="butt"/></g><g id="SvgjsG1157" class="apexcharts-bar-series apexcharts-plot-series"><g id="SvgjsG1158" class="apexcharts-series" seriesName="Earning" rel="1" data:realIndex="0"><path id="SvgjsPath1160" d="M-5.604043537414966 137.8L-5.604043537414966 62.67500000000001C-5.604043537414966 57.34166666666668 -2.9373768707482997 54.67500000000001 2.3959564625850343 54.67500000000001L-2.3959564625850343 54.67500000000001C2.937376870748299 54.67500000000001 5.604043537414966 57.34166666666668 5.604043537414966 62.67500000000001L5.604043537414966 62.67500000000001L5.604043537414966 137.8C5.604043537414966 143.13333333333333 2.9373768707482997 145.8 -2.3959564625850343 145.8C-2.3959564625850343 145.8 2.3959564625850343 145.8 2.3959564625850343 145.8C-2.937376870748299 145.8 -5.604043537414966 143.13333333333333 -5.604043537414966 137.8C-5.604043537414966 137.8 -5.604043537414966 137.8 -5.604043537414966 137.8 " fill="rgba(115,103,240,0.85)" fill-opacity="1" stroke-opacity="1" stroke-linecap="round" stroke-width="0" stroke-dasharray="0" class="apexcharts-bar-area" index="0" clip-path="url(#gridRectMask0j1g2db5)" pathTo="M -5.604043537414966 137.8L -5.604043537414966 62.67500000000001Q -5.604043537414966 54.67500000000001 2.3959564625850343 54.67500000000001L -2.3959564625850343 54.67500000000001Q 5.604043537414966 54.67500000000001 5.604043537414966 62.67500000000001L 5.604043537414966 62.67500000000001L 5.604043537414966 137.8Q 5.604043537414966 145.8 -2.3959564625850343 145.8L 2.3959564625850343 145.8Q -5.604043537414966 145.8 -5.604043537414966 137.8z" pathFrom="M -5.604043537414966 137.8L -5.604043537414966 137.8L 5.604043537414966 137.8L 5.604043537414966 137.8L 5.604043537414966 137.8L 5.604043537414966 137.8L 5.604043537414966 137.8L -5.604043537414966 137.8" cy="54.67500000000001" cx="5.604043537414965" j="0" val="15" barHeight="91.125" barWidth="11.208087074829931"/><path id="SvgjsPath1161" d="M37.503983673469385 137.8L37.503983673469385 93.05000000000001C37.503983673469385 87.71666666666668 40.17065034013605 85.05000000000001 45.503983673469385 85.05000000000001L40.71207074829932 85.05000000000001C46.045404081632654 85.05000000000001 48.712070748299325 87.71666666666668 48.71207074829932 93.05000000000001L48.71207074829932 93.05000000000001L48.71207074829932 137.8C48.712070748299325 143.13333333333333 46.045404081632654 145.8 40.71207074829932 145.8C40.71207074829932 145.8 45.503983673469385 145.8 45.503983673469385 145.8C40.17065034013605 145.8 37.503983673469385 143.13333333333333 37.503983673469385 137.8C37.503983673469385 137.8 37.503983673469385 137.8 37.503983673469385 137.8 " fill="rgba(115,103,240,0.85)" fill-opacity="1" stroke-opacity="1" stroke-linecap="round" stroke-width="0" stroke-dasharray="0" class="apexcharts-bar-area" index="0" clip-path="url(#gridRectMask0j1g2db5)" pathTo="M 37.503983673469385 137.8L 37.503983673469385 93.05000000000001Q 37.503983673469385 85.05000000000001 45.503983673469385 85.05000000000001L 40.71207074829932 85.05000000000001Q 48.71207074829932 85.05000000000001 48.71207074829932 93.05000000000001L 48.71207074829932 93.05000000000001L 48.71207074829932 137.8Q 48.71207074829932 145.8 40.71207074829932 145.8L 45.503983673469385 145.8Q 37.503983673469385 145.8 37.503983673469385 137.8z" pathFrom="M 37.503983673469385 137.8L 37.503983673469385 137.8L 48.71207074829932 137.8L 48.71207074829932 137.8L 48.71207074829932 137.8L 48.71207074829932 137.8L 48.71207074829932 137.8L 37.503983673469385 137.8" cy="85.05000000000001" cx="48.71207074829932" j="1" val="10" barHeight="60.75" barWidth="11.208087074829931"/><path id="SvgjsPath1162" d="M80.61201088435374 137.8L80.61201088435374 32.30000000000001C80.61201088435374 26.96666666666667 83.2786775510204 24.30000000000001 88.61201088435374 24.30000000000001L83.82009795918367 24.30000000000001C89.15343129251701 24.30000000000001 91.82009795918367 26.96666666666667 91.82009795918367 32.30000000000001L91.82009795918367 32.30000000000001L91.82009795918367 137.8C91.82009795918367 143.13333333333333 89.15343129251701 145.8 83.82009795918367 145.8C83.82009795918367 145.8 88.61201088435374 145.8 88.61201088435374 145.8C83.2786775510204 145.8 80.61201088435374 143.13333333333333 80.61201088435374 137.8C80.61201088435374 137.8 80.61201088435374 137.8 80.61201088435374 137.8 " fill="rgba(115,103,240,0.85)" fill-opacity="1" stroke-opacity="1" stroke-linecap="round" stroke-width="0" stroke-dasharray="0" class="apexcharts-bar-area" index="0" clip-path="url(#gridRectMask0j1g2db5)" pathTo="M 80.61201088435374 137.8L 80.61201088435374 32.30000000000001Q 80.61201088435374 24.30000000000001 88.61201088435374 24.30000000000001L 83.82009795918367 24.30000000000001Q 91.82009795918367 24.30000000000001 91.82009795918367 32.30000000000001L 91.82009795918367 32.30000000000001L 91.82009795918367 137.8Q 91.82009795918367 145.8 83.82009795918367 145.8L 88.61201088435374 145.8Q 80.61201088435374 145.8 80.61201088435374 137.8z" pathFrom="M 80.61201088435374 137.8L 80.61201088435374 137.8L 91.82009795918367 137.8L 91.82009795918367 137.8L 91.82009795918367 137.8L 91.82009795918367 137.8L 91.82009795918367 137.8L 80.61201088435374 137.8" cy="24.30000000000001" cx="91.82009795918367" j="2" val="20" barHeight="121.5" barWidth="11.208087074829931"/><path id="SvgjsPath1163" d="M123.72003809523808 137.8L123.72003809523808 105.20000000000002C123.72003809523807 99.86666666666667 126.38670476190474 97.20000000000002 131.72003809523807 97.20000000000002L126.928125170068 97.20000000000002C132.26145850340134 97.20000000000002 134.928125170068 99.86666666666667 134.928125170068 105.20000000000002L134.928125170068 105.20000000000002L134.928125170068 137.8C134.928125170068 143.13333333333333 132.26145850340134 145.8 126.928125170068 145.8C126.928125170068 145.8 131.72003809523807 145.8 131.72003809523807 145.8C126.38670476190474 145.8 123.72003809523807 143.13333333333333 123.72003809523808 137.8C123.72003809523808 137.8 123.72003809523808 137.8 123.72003809523808 137.8 " fill="rgba(115,103,240,0.85)" fill-opacity="1" stroke-opacity="1" stroke-linecap="round" stroke-width="0" stroke-dasharray="0" class="apexcharts-bar-area" index="0" clip-path="url(#gridRectMask0j1g2db5)" pathTo="M 123.72003809523808 137.8L 123.72003809523808 105.20000000000002Q 123.72003809523808 97.20000000000002 131.72003809523807 97.20000000000002L 126.928125170068 97.20000000000002Q 134.928125170068 97.20000000000002 134.928125170068 105.20000000000002L 134.928125170068 105.20000000000002L 134.928125170068 137.8Q 134.928125170068 145.8 126.928125170068 145.8L 131.72003809523807 145.8Q 123.72003809523808 145.8 123.72003809523808 137.8z" pathFrom="M 123.72003809523808 137.8L 123.72003809523808 137.8L 134.928125170068 137.8L 134.928125170068 137.8L 134.928125170068 137.8L 134.928125170068 137.8L 134.928125170068 137.8L 123.72003809523808 137.8" cy="97.20000000000002" cx="134.928125170068" j="3" val="8" barHeight="48.6" barWidth="11.208087074829931"/><path id="SvgjsPath1164" d="M166.82806530612245 137.8L166.82806530612245 80.9C166.82806530612245 75.56666666666666 169.4947319727891 72.9 174.82806530612245 72.9L170.0361523809524 72.9C175.36948571428573 72.9 178.0361523809524 75.56666666666666 178.0361523809524 80.9L178.0361523809524 80.9L178.0361523809524 137.8C178.0361523809524 143.13333333333333 175.36948571428573 145.8 170.0361523809524 145.8C170.0361523809524 145.8 174.82806530612245 145.8 174.82806530612245 145.8C169.4947319727891 145.8 166.82806530612245 143.13333333333333 166.82806530612245 137.8C166.82806530612245 137.8 166.82806530612245 137.8 166.82806530612245 137.8 " fill="rgba(115,103,240,0.85)" fill-opacity="1" stroke-opacity="1" stroke-linecap="round" stroke-width="0" stroke-dasharray="0" class="apexcharts-bar-area" index="0" clip-path="url(#gridRectMask0j1g2db5)" pathTo="M 166.82806530612245 137.8L 166.82806530612245 80.9Q 166.82806530612245 72.9 174.82806530612245 72.9L 170.0361523809524 72.9Q 178.0361523809524 72.9 178.0361523809524 80.9L 178.0361523809524 80.9L 178.0361523809524 137.8Q 178.0361523809524 145.8 170.0361523809524 145.8L 174.82806530612245 145.8Q 166.82806530612245 145.8 166.82806530612245 137.8z" pathFrom="M 166.82806530612245 137.8L 166.82806530612245 137.8L 178.0361523809524 137.8L 178.0361523809524 137.8L 178.0361523809524 137.8L 178.0361523809524 137.8L 178.0361523809524 137.8L 166.82806530612245 137.8" cy="72.9" cx="178.0361523809524" j="4" val="12" barHeight="72.9" barWidth="11.208087074829931"/><path id="SvgjsPath1165" d="M209.9360925170068 137.8L209.9360925170068 44.45000000000002C209.93609251700678 39.116666666666674 212.60275918367347 36.45000000000002 217.9360925170068 36.45000000000002L213.14417959183675 36.45000000000002C218.4775129251701 36.45000000000002 221.14417959183675 39.116666666666674 221.14417959183675 44.45000000000002L221.14417959183675 44.45000000000002L221.14417959183675 137.8C221.14417959183675 143.13333333333333 218.4775129251701 145.8 213.14417959183675 145.8C213.14417959183675 145.8 217.9360925170068 145.8 217.9360925170068 145.8C212.60275918367347 145.8 209.93609251700678 143.13333333333333 209.9360925170068 137.8C209.9360925170068 137.8 209.9360925170068 137.8 209.9360925170068 137.8 " fill="rgba(115,103,240,0.85)" fill-opacity="1" stroke-opacity="1" stroke-linecap="round" stroke-width="0" stroke-dasharray="0" class="apexcharts-bar-area" index="0" clip-path="url(#gridRectMask0j1g2db5)" pathTo="M 209.9360925170068 137.8L 209.9360925170068 44.45000000000002Q 209.9360925170068 36.45000000000002 217.9360925170068 36.45000000000002L 213.14417959183675 36.45000000000002Q 221.14417959183675 36.45000000000002 221.14417959183675 44.45000000000002L 221.14417959183675 44.45000000000002L 221.14417959183675 137.8Q 221.14417959183675 145.8 213.14417959183675 145.8L 217.9360925170068 145.8Q 209.9360925170068 145.8 209.9360925170068 137.8z" pathFrom="M 209.9360925170068 137.8L 209.9360925170068 137.8L 221.14417959183675 137.8L 221.14417959183675 137.8L 221.14417959183675 137.8L 221.14417959183675 137.8L 221.14417959183675 137.8L 209.9360925170068 137.8" cy="36.45000000000002" cx="221.14417959183675" j="5" val="18" barHeight="109.35" barWidth="11.208087074829931"/><path id="SvgjsPath1166" d="M253.04411972789114 137.8L253.04411972789114 80.9C253.04411972789114 75.56666666666666 255.7107863945578 72.9 261.04411972789114 72.9L256.25220680272105 72.9C261.58554013605436 72.9 264.25220680272105 75.56666666666666 264.25220680272105 80.9L264.25220680272105 80.9L264.25220680272105 137.8C264.25220680272105 143.13333333333333 261.58554013605436 145.8 256.25220680272105 145.8C256.25220680272105 145.8 261.04411972789114 145.8 261.04411972789114 145.8C255.7107863945578 145.8 253.04411972789114 143.13333333333333 253.04411972789114 137.8C253.04411972789114 137.8 253.04411972789114 137.8 253.04411972789114 137.8 " fill="rgba(115,103,240,0.85)" fill-opacity="1" stroke-opacity="1" stroke-linecap="round" stroke-width="0" stroke-dasharray="0" class="apexcharts-bar-area" index="0" clip-path="url(#gridRectMask0j1g2db5)" pathTo="M 253.04411972789114 137.8L 253.04411972789114 80.9Q 253.04411972789114 72.9 261.04411972789114 72.9L 256.25220680272105 72.9Q 264.25220680272105 72.9 264.25220680272105 80.9L 264.25220680272105 80.9L 264.25220680272105 137.8Q 264.25220680272105 145.8 256.25220680272105 145.8L 261.04411972789114 145.8Q 253.04411972789114 145.8 253.04411972789114 137.8z" pathFrom="M 253.04411972789114 137.8L 253.04411972789114 137.8L 264.25220680272105 137.8L 264.25220680272105 137.8L 264.25220680272105 137.8L 264.25220680272105 137.8L 264.25220680272105 137.8L 253.04411972789114 137.8" cy="72.9" cx="264.25220680272105" j="6" val="12" barHeight="72.9" barWidth="11.208087074829931"/><path id="SvgjsPath1167" d="M296.1521469387755 137.8L296.1521469387755 123.42500000000001C296.1521469387755 118.09166666666667 298.8188136054422 115.42500000000001 304.1521469387755 115.42500000000001L299.3602340136054 115.42500000000001C304.6935673469387 115.42500000000001 307.3602340136054 118.09166666666667 307.3602340136054 123.42500000000001L307.3602340136054 123.42500000000001L307.3602340136054 137.8C307.3602340136054 143.13333333333333 304.6935673469387 145.8 299.3602340136054 145.8C299.3602340136054 145.8 304.1521469387755 145.8 304.1521469387755 145.8C298.8188136054422 145.8 296.1521469387755 143.13333333333333 296.1521469387755 137.8C296.1521469387755 137.8 296.1521469387755 137.8 296.1521469387755 137.8 " fill="rgba(115,103,240,0.85)" fill-opacity="1" stroke-opacity="1" stroke-linecap="round" stroke-width="0" stroke-dasharray="0" class="apexcharts-bar-area" index="0" clip-path="url(#gridRectMask0j1g2db5)" pathTo="M 296.1521469387755 137.8L 296.1521469387755 123.42500000000001Q 296.1521469387755 115.42500000000001 304.1521469387755 115.42500000000001L 299.3602340136054 115.42500000000001Q 307.3602340136054 115.42500000000001 307.3602340136054 123.42500000000001L 307.3602340136054 123.42500000000001L 307.3602340136054 137.8Q 307.3602340136054 145.8 299.3602340136054 145.8L 304.1521469387755 145.8Q 296.1521469387755 145.8 296.1521469387755 137.8z" pathFrom="M 296.1521469387755 137.8L 296.1521469387755 137.8L 307.3602340136054 137.8L 307.3602340136054 137.8L 307.3602340136054 137.8L 307.3602340136054 137.8L 307.3602340136054 137.8L 296.1521469387755 137.8" cy="115.42500000000001" cx="307.3602340136054" j="7" val="5" barHeight="30.375" barWidth="11.208087074829931"/></g><g id="SvgjsG1168" class="apexcharts-series" seriesName="Expense" rel="2" data:realIndex="1"><path id="SvgjsPath1170" d="M-5.604043537414966 161.8L-5.604043537414966 188.32500000000002C-5.604043537414966 193.65833333333336 -2.9373768707482997 196.32500000000005 2.3959564625850343 196.32500000000002L-2.3959564625850343 196.32500000000002C2.937376870748299 196.32500000000005 5.604043537414966 193.65833333333336 5.604043537414966 188.32500000000002L5.604043537414966 188.32500000000002L5.604043537414966 161.8C5.604043537414966 156.4666666666667 2.9373768707482997 153.8 -2.3959564625850343 153.8C-2.3959564625850343 153.8 2.3959564625850343 153.8 2.3959564625850343 153.8C-2.937376870748299 153.8 -5.604043537414966 156.4666666666667 -5.604043537414966 161.8C-5.604043537414966 161.8 -5.604043537414966 161.8 -5.604043537414966 161.8 " fill="rgba(129,125,141,0.85)" fill-opacity="1" stroke-opacity="1" stroke-linecap="round" stroke-width="0" stroke-dasharray="0" class="apexcharts-bar-area" index="1" clip-path="url(#gridRectMask0j1g2db5)" pathTo="M -5.604043537414966 161.8L -5.604043537414966 188.32500000000002Q -5.604043537414966 196.32500000000002 2.3959564625850343 196.32500000000002L -2.3959564625850343 196.32500000000002Q 5.604043537414966 196.32500000000002 5.604043537414966 188.32500000000002L 5.604043537414966 188.32500000000002L 5.604043537414966 161.8Q 5.604043537414966 153.8 -2.3959564625850343 153.8L 2.3959564625850343 153.8Q -5.604043537414966 153.8 -5.604043537414966 161.8z" pathFrom="M -5.604043537414966 161.8L -5.604043537414966 161.8L 5.604043537414966 161.8L 5.604043537414966 161.8L 5.604043537414966 161.8L 5.604043537414966 161.8L 5.604043537414966 161.8L -5.604043537414966 161.8" cy="180.32500000000002" cx="5.604043537414965" j="0" val="-7" barHeight="-42.525" barWidth="11.208087074829931"/><path id="SvgjsPath1171" d="M37.503983673469385 161.8L37.503983673469385 206.55C37.503983673469385 211.88333333333333 40.17065034013605 214.55 45.503983673469385 214.55L40.71207074829932 214.55C46.045404081632654 214.55 48.712070748299325 211.88333333333333 48.71207074829932 206.55L48.71207074829932 206.55L48.71207074829932 161.8C48.712070748299325 156.4666666666667 46.045404081632654 153.8 40.71207074829932 153.8C40.71207074829932 153.8 45.503983673469385 153.8 45.503983673469385 153.8C40.17065034013605 153.8 37.503983673469385 156.4666666666667 37.503983673469385 161.8C37.503983673469385 161.8 37.503983673469385 161.8 37.503983673469385 161.8 " fill="rgba(129,125,141,0.85)" fill-opacity="1" stroke-opacity="1" stroke-linecap="round" stroke-width="0" stroke-dasharray="0" class="apexcharts-bar-area" index="1" clip-path="url(#gridRectMask0j1g2db5)" pathTo="M 37.503983673469385 161.8L 37.503983673469385 206.55Q 37.503983673469385 214.55 45.503983673469385 214.55L 40.71207074829932 214.55Q 48.71207074829932 214.55 48.71207074829932 206.55L 48.71207074829932 206.55L 48.71207074829932 161.8Q 48.71207074829932 153.8 40.71207074829932 153.8L 45.503983673469385 153.8Q 37.503983673469385 153.8 37.503983673469385 161.8z" pathFrom="M 37.503983673469385 161.8L 37.503983673469385 161.8L 48.71207074829932 161.8L 48.71207074829932 161.8L 48.71207074829932 161.8L 48.71207074829932 161.8L 48.71207074829932 161.8L 37.503983673469385 161.8" cy="198.55" cx="48.71207074829932" j="1" val="-10" barHeight="-60.75" barWidth="11.208087074829931"/><path id="SvgjsPath1172" d="M80.61201088435374 161.8L80.61201088435374 188.32500000000002C80.61201088435374 193.65833333333336 83.2786775510204 196.32500000000005 88.61201088435374 196.32500000000002L83.82009795918367 196.32500000000002C89.15343129251701 196.32500000000005 91.82009795918367 193.65833333333336 91.82009795918367 188.32500000000002L91.82009795918367 188.32500000000002L91.82009795918367 161.8C91.82009795918367 156.4666666666667 89.15343129251701 153.8 83.82009795918367 153.8C83.82009795918367 153.8 88.61201088435374 153.8 88.61201088435374 153.8C83.2786775510204 153.8 80.61201088435374 156.4666666666667 80.61201088435374 161.8C80.61201088435374 161.8 80.61201088435374 161.8 80.61201088435374 161.8 " fill="rgba(129,125,141,0.85)" fill-opacity="1" stroke-opacity="1" stroke-linecap="round" stroke-width="0" stroke-dasharray="0" class="apexcharts-bar-area" index="1" clip-path="url(#gridRectMask0j1g2db5)" pathTo="M 80.61201088435374 161.8L 80.61201088435374 188.32500000000002Q 80.61201088435374 196.32500000000002 88.61201088435374 196.32500000000002L 83.82009795918367 196.32500000000002Q 91.82009795918367 196.32500000000002 91.82009795918367 188.32500000000002L 91.82009795918367 188.32500000000002L 91.82009795918367 161.8Q 91.82009795918367 153.8 83.82009795918367 153.8L 88.61201088435374 153.8Q 80.61201088435374 153.8 80.61201088435374 161.8z" pathFrom="M 80.61201088435374 161.8L 80.61201088435374 161.8L 91.82009795918367 161.8L 91.82009795918367 161.8L 91.82009795918367 161.8L 91.82009795918367 161.8L 91.82009795918367 161.8L 80.61201088435374 161.8" cy="180.32500000000002" cx="91.82009795918367" j="2" val="-7" barHeight="-42.525" barWidth="11.208087074829931"/><path id="SvgjsPath1173" d="M123.72003809523808 161.8L123.72003809523808 218.70000000000002C123.72003809523807 224.03333333333336 126.38670476190474 226.70000000000005 131.72003809523807 226.70000000000002L126.928125170068 226.70000000000002C132.26145850340134 226.70000000000005 134.928125170068 224.03333333333336 134.928125170068 218.70000000000002L134.928125170068 218.70000000000002L134.928125170068 161.8C134.928125170068 156.4666666666667 132.26145850340134 153.8 126.928125170068 153.8C126.928125170068 153.8 131.72003809523807 153.8 131.72003809523807 153.8C126.38670476190474 153.8 123.72003809523807 156.4666666666667 123.72003809523808 161.8C123.72003809523808 161.8 123.72003809523808 161.8 123.72003809523808 161.8 " fill="rgba(129,125,141,0.85)" fill-opacity="1" stroke-opacity="1" stroke-linecap="round" stroke-width="0" stroke-dasharray="0" class="apexcharts-bar-area" index="1" clip-path="url(#gridRectMask0j1g2db5)" pathTo="M 123.72003809523808 161.8L 123.72003809523808 218.70000000000002Q 123.72003809523808 226.70000000000002 131.72003809523807 226.70000000000002L 126.928125170068 226.70000000000002Q 134.928125170068 226.70000000000002 134.928125170068 218.70000000000002L 134.928125170068 218.70000000000002L 134.928125170068 161.8Q 134.928125170068 153.8 126.928125170068 153.8L 131.72003809523807 153.8Q 123.72003809523808 153.8 123.72003809523808 161.8z" pathFrom="M 123.72003809523808 161.8L 123.72003809523808 161.8L 134.928125170068 161.8L 134.928125170068 161.8L 134.928125170068 161.8L 134.928125170068 161.8L 134.928125170068 161.8L 123.72003809523808 161.8" cy="210.70000000000002" cx="134.928125170068" j="3" val="-12" barHeight="-72.9" barWidth="11.208087074829931"/><path id="SvgjsPath1174" d="M166.82806530612245 161.8L166.82806530612245 182.25C166.82806530612245 187.58333333333331 169.4947319727891 190.25 174.82806530612245 190.25L170.0361523809524 190.25C175.36948571428573 190.25 178.0361523809524 187.58333333333331 178.0361523809524 182.25L178.0361523809524 182.25L178.0361523809524 161.8C178.0361523809524 156.4666666666667 175.36948571428573 153.8 170.0361523809524 153.8C170.0361523809524 153.8 174.82806530612245 153.8 174.82806530612245 153.8C169.4947319727891 153.8 166.82806530612245 156.4666666666667 166.82806530612245 161.8C166.82806530612245 161.8 166.82806530612245 161.8 166.82806530612245 161.8 " fill="rgba(129,125,141,0.85)" fill-opacity="1" stroke-opacity="1" stroke-linecap="round" stroke-width="0" stroke-dasharray="0" class="apexcharts-bar-area" index="1" clip-path="url(#gridRectMask0j1g2db5)" pathTo="M 166.82806530612245 161.8L 166.82806530612245 182.25Q 166.82806530612245 190.25 174.82806530612245 190.25L 170.0361523809524 190.25Q 178.0361523809524 190.25 178.0361523809524 182.25L 178.0361523809524 182.25L 178.0361523809524 161.8Q 178.0361523809524 153.8 170.0361523809524 153.8L 174.82806530612245 153.8Q 166.82806530612245 153.8 166.82806530612245 161.8z" pathFrom="M 166.82806530612245 161.8L 166.82806530612245 161.8L 178.0361523809524 161.8L 178.0361523809524 161.8L 178.0361523809524 161.8L 178.0361523809524 161.8L 178.0361523809524 161.8L 166.82806530612245 161.8" cy="174.25" cx="178.0361523809524" j="4" val="-6" barHeight="-36.45" barWidth="11.208087074829931"/><path id="SvgjsPath1175" d="M209.9360925170068 161.8L209.9360925170068 200.47500000000002C209.93609251700678 205.80833333333334 212.60275918367347 208.47500000000002 217.9360925170068 208.47500000000002L213.14417959183675 208.47500000000002C218.4775129251701 208.47500000000002 221.14417959183675 205.80833333333334 221.14417959183675 200.47500000000002L221.14417959183675 200.47500000000002L221.14417959183675 161.8C221.14417959183675 156.4666666666667 218.4775129251701 153.8 213.14417959183675 153.8C213.14417959183675 153.8 217.9360925170068 153.8 217.9360925170068 153.8C212.60275918367347 153.8 209.93609251700678 156.4666666666667 209.9360925170068 161.8C209.9360925170068 161.8 209.9360925170068 161.8 209.9360925170068 161.8 " fill="rgba(129,125,141,0.85)" fill-opacity="1" stroke-opacity="1" stroke-linecap="round" stroke-width="0" stroke-dasharray="0" class="apexcharts-bar-area" index="1" clip-path="url(#gridRectMask0j1g2db5)" pathTo="M 209.9360925170068 161.8L 209.9360925170068 200.47500000000002Q 209.9360925170068 208.47500000000002 217.9360925170068 208.47500000000002L 213.14417959183675 208.47500000000002Q 221.14417959183675 208.47500000000002 221.14417959183675 200.47500000000002L 221.14417959183675 200.47500000000002L 221.14417959183675 161.8Q 221.14417959183675 153.8 213.14417959183675 153.8L 217.9360925170068 153.8Q 209.9360925170068 153.8 209.9360925170068 161.8z" pathFrom="M 209.9360925170068 161.8L 209.9360925170068 161.8L 221.14417959183675 161.8L 221.14417959183675 161.8L 221.14417959183675 161.8L 221.14417959183675 161.8L 221.14417959183675 161.8L 209.9360925170068 161.8" cy="192.47500000000002" cx="221.14417959183675" j="5" val="-9" barHeight="-54.675" barWidth="11.208087074829931"/><path id="SvgjsPath1176" d="M253.04411972789114 161.8L253.04411972789114 176.175C253.04411972789114 181.50833333333335 255.7107863945578 184.175 261.04411972789114 184.175L256.25220680272105 184.175C261.58554013605436 184.175 264.25220680272105 181.50833333333335 264.25220680272105 176.175L264.25220680272105 176.175L264.25220680272105 161.8C264.25220680272105 156.4666666666667 261.58554013605436 153.8 256.25220680272105 153.8C256.25220680272105 153.8 261.04411972789114 153.8 261.04411972789114 153.8C255.7107863945578 153.8 253.04411972789114 156.4666666666667 253.04411972789114 161.8C253.04411972789114 161.8 253.04411972789114 161.8 253.04411972789114 161.8 " fill="rgba(129,125,141,0.85)" fill-opacity="1" stroke-opacity="1" stroke-linecap="round" stroke-width="0" stroke-dasharray="0" class="apexcharts-bar-area" index="1" clip-path="url(#gridRectMask0j1g2db5)" pathTo="M 253.04411972789114 161.8L 253.04411972789114 176.175Q 253.04411972789114 184.175 261.04411972789114 184.175L 256.25220680272105 184.175Q 264.25220680272105 184.175 264.25220680272105 176.175L 264.25220680272105 176.175L 264.25220680272105 161.8Q 264.25220680272105 153.8 256.25220680272105 153.8L 261.04411972789114 153.8Q 253.04411972789114 153.8 253.04411972789114 161.8z" pathFrom="M 253.04411972789114 161.8L 253.04411972789114 161.8L 264.25220680272105 161.8L 264.25220680272105 161.8L 264.25220680272105 161.8L 264.25220680272105 161.8L 264.25220680272105 161.8L 253.04411972789114 161.8" cy="168.175" cx="264.25220680272105" j="6" val="-5" barHeight="-30.375" barWidth="11.208087074829931"/><path id="SvgjsPath1177" d="M296.1521469387755 161.8L296.1521469387755 194.4C296.1521469387755 199.73333333333335 298.8188136054422 202.4 304.1521469387755 202.4L299.3602340136054 202.4C304.6935673469387 202.4 307.3602340136054 199.73333333333335 307.3602340136054 194.4L307.3602340136054 194.4L307.3602340136054 161.8C307.3602340136054 156.4666666666667 304.6935673469387 153.8 299.3602340136054 153.8C299.3602340136054 153.8 304.1521469387755 153.8 304.1521469387755 153.8C298.8188136054422 153.8 296.1521469387755 156.4666666666667 296.1521469387755 161.8C296.1521469387755 161.8 296.1521469387755 161.8 296.1521469387755 161.8 " fill="rgba(129,125,141,0.85)" fill-opacity="1" stroke-opacity="1" stroke-linecap="round" stroke-width="0" stroke-dasharray="0" class="apexcharts-bar-area" index="1" clip-path="url(#gridRectMask0j1g2db5)" pathTo="M 296.1521469387755 161.8L 296.1521469387755 194.4Q 296.1521469387755 202.4 304.1521469387755 202.4L 299.3602340136054 202.4Q 307.3602340136054 202.4 307.3602340136054 194.4L 307.3602340136054 194.4L 307.3602340136054 161.8Q 307.3602340136054 153.8 299.3602340136054 153.8L 304.1521469387755 153.8Q 296.1521469387755 153.8 296.1521469387755 161.8z" pathFrom="M 296.1521469387755 161.8L 296.1521469387755 161.8L 307.3602340136054 161.8L 307.3602340136054 161.8L 307.3602340136054 161.8L 307.3602340136054 161.8L 307.3602340136054 161.8L 296.1521469387755 161.8" cy="186.4" cx="307.3602340136054" j="7" val="-8" barHeight="-48.6" barWidth="11.208087074829931"/></g><g id="SvgjsG1159" class="apexcharts-datalabels" data:realIndex="0"/><g id="SvgjsG1169" class="apexcharts-datalabels" data:realIndex="1"/></g><line id="SvgjsLine1199" x1="-13.12190476190476" y1="0" x2="314.8780952380952" y2="0" stroke="#b6b6b6" stroke-dasharray="0" stroke-width="1" stroke-linecap="butt" class="apexcharts-ycrosshairs"/><line id="SvgjsLine1200" x1="-13.12190476190476" y1="0" x2="314.8780952380952" y2="0" stroke-dasharray="0" stroke-width="0" stroke-linecap="butt" class="apexcharts-ycrosshairs-hidden"/><g id="SvgjsG1201" class="apexcharts-yaxis-annotations"/><g id="SvgjsG1202" class="apexcharts-xaxis-annotations"/><g id="SvgjsG1203" class="apexcharts-point-annotations"/><rect id="SvgjsRect1204" width="0" height="0" x="0" y="0" rx="0" ry="0" opacity="1" stroke-width="0" stroke="none" stroke-dasharray="0" fill="#fefefe" class="apexcharts-zoom-rect"/><rect id="SvgjsRect1205" width="0" height="0" x="0" y="0" rx="0" ry="0" opacity="1" stroke-width="0" stroke="none" stroke-dasharray="0" fill="#fefefe" class="apexcharts-selection-rect"/></g><g id="SvgjsG1186" class="apexcharts-yaxis" rel="0" transform="translate(-8, 0)"><g id="SvgjsG1187" class="apexcharts-yaxis-texts-g"/></g><g id="SvgjsG1148" class="apexcharts-annotations"/></svg>